<svg width="26" height="26" viewBox="0 0 26 26" fill="none" xmlns="http://www.w3.org/2000/svg">
<path fill-rule="evenodd" clip-rule="evenodd" d="M6.5 13C6.5 12.7845 6.5856 12.5778 6.73798 12.4255C6.89035 12.2731 7.09701 12.1875 7.3125 12.1875H16.7261L13.2372 8.70024C13.0847 8.54767 12.999 8.34075 12.999 8.12499C12.999 7.90923 13.0847 7.7023 13.2372 7.54974C13.3898 7.39717 13.5967 7.31146 13.8125 7.31146C14.0283 7.31146 14.2352 7.39717 14.3878 7.54974L19.2628 12.4247C19.3384 12.5002 19.3984 12.5899 19.4394 12.6886C19.4804 12.7873 19.5015 12.8931 19.5015 13C19.5015 13.1069 19.4804 13.2127 19.4394 13.3114C19.3984 13.4101 19.3384 13.4998 19.2628 13.5752L14.3878 18.4502C14.2352 18.6028 14.0283 18.6885 13.8125 18.6885C13.5967 18.6885 13.3898 18.6028 13.2372 18.4502C13.0847 18.2977 12.999 18.0907 12.999 17.875C12.999 17.6592 13.0847 17.4523 13.2372 17.2997L16.7261 13.8125H7.3125C7.09701 13.8125 6.89035 13.7269 6.73798 13.5745C6.5856 13.4221 6.5 13.2155 6.5 13Z" fill="#FF7D44"/>
</svg>
